<svg width="1080" height="1080" viewBox="0 0 1080 1080" fill="none" xmlns="http://www.w3.org/2000/svg">
<g clip-path="url(#clip0_16_40)">
<rect width="1080" height="1080" fill="#0E0E0E"/>
<rect x="2.10353" y="-0.00318691" width="52.7867" height="51.3177" transform="matrix(0.700098 -0.714047 0.702258 0.711923 938.432 31.3355)" stroke="url(#paint0_linear_16_40)" stroke-width="3"/>
<rect x="2.10353" y="-0.003187" width="52.7867" height="51.3177" transform="matrix(0.700097 -0.714047 0.702258 0.711923 937.633 50.8311)" stroke="url(#paint1_linear_16_40)" stroke-width="3"/>
<rect x="2.10353" y="-0.00318691" width="52.7867" height="51.3177" transform="matrix(0.700098 -0.714047 0.702258 0.711923 771.432 36.3355)" stroke="url(#paint2_linear_16_40)" stroke-width="3"/>
<rect x="2.10353" y="-0.003187" width="52.7867" height="51.3177" transform="matrix(0.700097 -0.714047 0.702258 0.711923 770.633 55.8311)" stroke="url(#paint3_linear_16_40)" stroke-width="3"/>
<rect x="2.10353" y="-0.00318691" width="52.7867" height="51.3177" transform="matrix(0.700098 -0.714047 0.702258 0.711923 853.432 125.335)" stroke="url(#paint4_linear_16_40)" stroke-width="3"/>
<rect x="2.10353" y="-0.003187" width="52.7867" height="51.3177" transform="matrix(0.700097 -0.714047 0.702258 0.711923 852.633 144.831)" stroke="url(#paint5_linear_16_40)" stroke-width="3"/>
<rect x="2.09265" y="-0.00316975" width="53.0776" height="51.5993" transform="matrix(0.696465 -0.717591 0.698636 0.715478 944.936 212.242)" stroke="url(#paint6_linear_16_40)" stroke-width="3"/>
<rect x="2.09265" y="-0.00316975" width="53.0776" height="51.5993" transform="matrix(0.696465 -0.717591 0.698636 0.715478 944.137 231.936)" stroke="url(#paint7_linear_16_40)" stroke-width="3"/>
<rect x="2.09265" y="-0.00316975" width="53.0776" height="51.5993" transform="matrix(0.696465 -0.717591 0.698636 0.715478 777.936 218.242)" stroke="url(#paint8_linear_16_40)" stroke-width="3"/>
<rect x="2.09265" y="-0.00316975" width="53.0776" height="51.5993" transform="matrix(0.696465 -0.717591 0.698636 0.715478 777.137 237.936)" stroke="url(#paint9_linear_16_40)" stroke-width="3"/>
<rect x="2.08969" y="-0.00316501" width="52.4373" height="50.9754" transform="matrix(0.695478 -0.718548 0.697651 0.716438 859.927 306.835)" stroke="url(#paint10_linear_16_40)" stroke-width="3"/>
<rect x="2.08969" y="-0.00316501" width="52.4373" height="50.9754" transform="matrix(0.695478 -0.718548 0.697651 0.716438 859.139 326.331)" stroke="url(#paint11_linear_16_40)" stroke-width="3"/>
<rect x="2.1063" y="-0.00319129" width="53.4275" height="51.9421" transform="matrix(0.70102 -0.713141 0.703178 0.711014 946.441 394.742)" stroke="url(#paint12_linear_16_40)" stroke-width="3"/>
<rect x="2.1063" y="-0.00319129" width="53.4275" height="51.9421" transform="matrix(0.70102 -0.713141 0.703178 0.711014 945.632 414.437)" stroke="url(#paint13_linear_16_40)" stroke-width="3"/>
<rect x="2.09265" y="-0.00316975" width="53.0776" height="51.5993" transform="matrix(0.696465 -0.717591 0.698636 0.715478 778.936 400.242)" stroke="url(#paint14_linear_16_40)" stroke-width="3"/>
<rect x="2.09265" y="-0.00316975" width="53.0776" height="51.5993" transform="matrix(0.696465 -0.717591 0.698636 0.715478 778.137 419.936)" stroke="url(#paint15_linear_16_40)" stroke-width="3"/>
<rect x="2.10353" y="-0.00318691" width="52.7867" height="51.3177" transform="matrix(0.700098 -0.714047 0.702258 0.711923 860.432 488.335)" stroke="url(#paint16_linear_16_40)" stroke-width="3"/>
<rect x="2.10353" y="-0.003187" width="52.7867" height="51.3177" transform="matrix(0.700097 -0.714047 0.702258 0.711923 859.633 507.831)" stroke="url(#paint17_linear_16_40)" stroke-width="3"/>
<rect x="2.07875" y="-0.00314739" width="52.73" height="51.2588" transform="matrix(0.691824 -0.722066 0.694007 0.719968 953.431 576.741)" stroke="url(#paint18_linear_16_40)" stroke-width="3"/>
<rect x="2.07875" y="-0.00314739" width="52.73" height="51.2588" transform="matrix(0.691824 -0.722066 0.694007 0.719968 952.643 596.436)" stroke="url(#paint19_linear_16_40)" stroke-width="3"/>
<rect x="2.07875" y="-0.00314739" width="52.73" height="51.2588" transform="matrix(0.691824 -0.722066 0.694007 0.719968 785.431 581.741)" stroke="url(#paint20_linear_16_40)" stroke-width="3"/>
<rect x="2.07875" y="-0.00314739" width="52.73" height="51.2588" transform="matrix(0.691824 -0.722066 0.694007 0.719968 784.643 601.436)" stroke="url(#paint21_linear_16_40)" stroke-width="3"/>
<rect x="2.09265" y="-0.00316975" width="53.0776" height="51.5993" transform="matrix(0.696465 -0.717591 0.698636 0.715478 866.936 670.241)" stroke="url(#paint22_linear_16_40)" stroke-width="3"/>
<rect x="2.09265" y="-0.00316975" width="53.0776" height="51.5993" transform="matrix(0.696465 -0.717591 0.698636 0.715478 866.137 689.936)" stroke="url(#paint23_linear_16_40)" stroke-width="3"/>
<rect x="2.08969" y="-0.00316501" width="52.4373" height="50.9754" transform="matrix(0.695478 -0.718548 0.697651 0.716438 964.927 757.835)" stroke="url(#paint24_linear_16_40)" stroke-width="3"/>
<rect x="2.08969" y="-0.00316501" width="52.4373" height="50.9754" transform="matrix(0.695478 -0.718548 0.697651 0.716438 964.139 777.331)" stroke="url(#paint25_linear_16_40)" stroke-width="3"/>
<rect x="2.10353" y="-0.00318691" width="52.7867" height="51.3177" transform="matrix(0.700098 -0.714047 0.702258 0.711923 796.432 763.335)" stroke="url(#paint26_linear_16_40)" stroke-width="3"/>
<rect x="2.10353" y="-0.003187" width="52.7867" height="51.3177" transform="matrix(0.700097 -0.714047 0.702258 0.711923 795.633 782.831)" stroke="url(#paint27_linear_16_40)" stroke-width="3"/>
<rect x="2.08969" y="-0.00316501" width="52.4373" height="50.9754" transform="matrix(0.695478 -0.718548 0.697651 0.716438 878.927 851.835)" stroke="url(#paint28_linear_16_40)" stroke-width="3"/>
<rect x="2.08969" y="-0.00316501" width="52.4373" height="50.9754" transform="matrix(0.695478 -0.718548 0.697651 0.716438 878.139 871.331)" stroke="url(#paint29_linear_16_40)" stroke-width="3"/>
<rect x="2.10353" y="-0.00318691" width="52.7867" height="51.3177" transform="matrix(0.700098 -0.714047 0.702258 0.711923 965.432 939.335)" stroke="url(#paint30_linear_16_40)" stroke-width="3"/>
<rect x="2.10353" y="-0.003187" width="52.7867" height="51.3177" transform="matrix(0.700097 -0.714047 0.702258 0.711923 964.633 958.831)" stroke="url(#paint31_linear_16_40)" stroke-width="3"/>
<rect x="2.08969" y="-0.00316501" width="52.4373" height="50.9754" transform="matrix(0.695478 -0.718548 0.697651 0.716438 797.927 944.835)" stroke="url(#paint32_linear_16_40)" stroke-width="3"/>
<rect x="2.08969" y="-0.00316501" width="52.4373" height="50.9754" transform="matrix(0.695478 -0.718548 0.697651 0.716438 797.139 964.331)" stroke="url(#paint33_linear_16_40)" stroke-width="3"/>
<rect x="2.10353" y="-0.00318691" width="52.7867" height="51.3177" transform="matrix(0.700098 -0.714047 0.702258 0.711923 879.432 1033.34)" stroke="url(#paint34_linear_16_40)" stroke-width="3"/>
<rect x="2.10353" y="-0.003187" width="52.7867" height="51.3177" transform="matrix(0.700097 -0.714047 0.702258 0.711923 878.633 1052.83)" stroke="url(#paint35_linear_16_40)" stroke-width="3"/>
<rect x="2.10353" y="-0.00318691" width="52.7867" height="51.3177" transform="matrix(0.700098 -0.714047 0.702258 0.711923 200.432 38.3355)" stroke="url(#paint36_linear_16_40)" stroke-width="3"/>
<rect x="2.10353" y="-0.003187" width="52.7867" height="51.3177" transform="matrix(0.700097 -0.714047 0.702258 0.711923 199.633 57.8311)" stroke="url(#paint37_linear_16_40)" stroke-width="3"/>
<rect x="2.10353" y="-0.00318691" width="52.7867" height="51.3177" transform="matrix(0.700098 -0.714047 0.702258 0.711923 33.432 43.3355)" stroke="url(#paint38_linear_16_40)" stroke-width="3"/>
<rect x="2.10353" y="-0.003187" width="52.7867" height="51.3177" transform="matrix(0.700097 -0.714047 0.702258 0.711923 32.6331 62.8311)" stroke="url(#paint39_linear_16_40)" stroke-width="3"/>
<rect x="2.10353" y="-0.00318691" width="52.7867" height="51.3177" transform="matrix(0.700098 -0.714047 0.702258 0.711923 115.432 132.335)" stroke="url(#paint40_linear_16_40)" stroke-width="3"/>
<rect x="2.10353" y="-0.003187" width="52.7867" height="51.3177" transform="matrix(0.700097 -0.714047 0.702258 0.711923 114.633 151.831)" stroke="url(#paint41_linear_16_40)" stroke-width="3"/>
<rect x="2.09265" y="-0.00316975" width="53.0776" height="51.5993" transform="matrix(0.696465 -0.717591 0.698636 0.715478 206.936 219.242)" stroke="url(#paint42_linear_16_40)" stroke-width="3"/>
<rect x="2.09265" y="-0.00316975" width="53.0776" height="51.5993" transform="matrix(0.696465 -0.717591 0.698636 0.715478 206.137 238.936)" stroke="url(#paint43_linear_16_40)" stroke-width="3"/>
<rect x="2.09265" y="-0.00316975" width="53.0776" height="51.5993" transform="matrix(0.696465 -0.717591 0.698636 0.715478 39.9363 225.242)" stroke="url(#paint44_linear_16_40)" stroke-width="3"/>
<rect x="2.09265" y="-0.00316975" width="53.0776" height="51.5993" transform="matrix(0.696465 -0.717591 0.698636 0.715478 39.1374 244.936)" stroke="url(#paint45_linear_16_40)" stroke-width="3"/>
<rect x="2.08969" y="-0.00316501" width="52.4373" height="50.9754" transform="matrix(0.695478 -0.718548 0.697651 0.716438 121.927 313.835)" stroke="url(#paint46_linear_16_40)" stroke-width="3"/>
<rect x="2.08969" y="-0.00316501" width="52.4373" height="50.9754" transform="matrix(0.695478 -0.718548 0.697651 0.716438 121.139 333.331)" stroke="url(#paint47_linear_16_40)" stroke-width="3"/>
<rect x="2.1063" y="-0.00319129" width="53.4275" height="51.9421" transform="matrix(0.70102 -0.713141 0.703178 0.711014 208.441 401.742)" stroke="url(#paint48_linear_16_40)" stroke-width="3"/>
<rect x="2.1063" y="-0.00319129" width="53.4275" height="51.9421" transform="matrix(0.70102 -0.713141 0.703178 0.711014 207.632 421.437)" stroke="url(#paint49_linear_16_40)" stroke-width="3"/>
<rect x="2.09265" y="-0.00316975" width="53.0776" height="51.5993" transform="matrix(0.696465 -0.717591 0.698636 0.715478 40.9363 407.242)" stroke="url(#paint50_linear_16_40)" stroke-width="3"/>
<rect x="2.09265" y="-0.00316975" width="53.0776" height="51.5993" transform="matrix(0.696465 -0.717591 0.698636 0.715478 40.1374 426.936)" stroke="url(#paint51_linear_16_40)" stroke-width="3"/>
<rect x="2.10353" y="-0.00318691" width="52.7867" height="51.3177" transform="matrix(0.700098 -0.714047 0.702258 0.711923 122.432 495.335)" stroke="url(#paint52_linear_16_40)" stroke-width="3"/>
<rect x="2.10353" y="-0.003187" width="52.7867" height="51.3177" transform="matrix(0.700097 -0.714047 0.702258 0.711923 121.633 514.831)" stroke="url(#paint53_linear_16_40)" stroke-width="3"/>
<rect x="2.07875" y="-0.00314739" width="52.73" height="51.2588" transform="matrix(0.691824 -0.722066 0.694007 0.719968 215.431 583.741)" stroke="url(#paint54_linear_16_40)" stroke-width="3"/>
<rect x="2.07875" y="-0.00314739" width="52.73" height="51.2588" transform="matrix(0.691824 -0.722066 0.694007 0.719968 214.643 603.436)" stroke="url(#paint55_linear_16_40)" stroke-width="3"/>
<rect x="2.07875" y="-0.00314739" width="52.73" height="51.2588" transform="matrix(0.691824 -0.722066 0.694007 0.719968 47.4314 588.741)" stroke="url(#paint56_linear_16_40)" stroke-width="3"/>
<rect x="2.07875" y="-0.00314739" width="52.73" height="51.2588" transform="matrix(0.691824 -0.722066 0.694007 0.719968 46.6428 608.435)" stroke="url(#paint57_linear_16_40)" stroke-width="3"/>
<rect x="2.09265" y="-0.00316975" width="53.0776" height="51.5993" transform="matrix(0.696465 -0.717591 0.698636 0.715478 128.936 677.241)" stroke="url(#paint58_linear_16_40)" stroke-width="3"/>
<rect x="2.09265" y="-0.00316975" width="53.0776" height="51.5993" transform="matrix(0.696465 -0.717591 0.698636 0.715478 128.137 696.936)" stroke="url(#paint59_linear_16_40)" stroke-width="3"/>
<rect x="2.08969" y="-0.00316501" width="52.4373" height="50.9754" transform="matrix(0.695478 -0.718548 0.697651 0.716438 226.927 764.835)" stroke="url(#paint60_linear_16_40)" stroke-width="3"/>
<rect x="2.08969" y="-0.00316501" width="52.4373" height="50.9754" transform="matrix(0.695478 -0.718548 0.697651 0.716438 226.139 784.331)" stroke="url(#paint61_linear_16_40)" stroke-width="3"/>
<rect x="2.10353" y="-0.00318691" width="52.7867" height="51.3177" transform="matrix(0.700098 -0.714047 0.702258 0.711923 58.432 770.335)" stroke="url(#paint62_linear_16_40)" stroke-width="3"/>
<rect x="2.10353" y="-0.003187" width="52.7867" height="51.3177" transform="matrix(0.700097 -0.714047 0.702258 0.711923 57.6331 789.831)" stroke="url(#paint63_linear_16_40)" stroke-width="3"/>
<rect x="2.08969" y="-0.00316501" width="52.4373" height="50.9754" transform="matrix(0.695478 -0.718548 0.697651 0.716438 140.927 858.835)" stroke="url(#paint64_linear_16_40)" stroke-width="3"/>
<rect x="2.08969" y="-0.00316501" width="52.4373" height="50.9754" transform="matrix(0.695478 -0.718548 0.697651 0.716438 140.139 878.331)" stroke="url(#paint65_linear_16_40)" stroke-width="3"/>
<rect x="2.10353" y="-0.00318691" width="52.7867" height="51.3177" transform="matrix(0.700098 -0.714047 0.702258 0.711923 227.432 946.335)" stroke="url(#paint66_linear_16_40)" stroke-width="3"/>
<rect x="2.10353" y="-0.003187" width="52.7867" height="51.3177" transform="matrix(0.700097 -0.714047 0.702258 0.711923 226.633 965.831)" stroke="url(#paint67_linear_16_40)" stroke-width="3"/>
<rect x="2.08969" y="-0.00316501" width="52.4373" height="50.9754" transform="matrix(0.695478 -0.718548 0.697651 0.716438 59.9272 951.835)" stroke="url(#paint68_linear_16_40)" stroke-width="3"/>
<rect x="2.08969" y="-0.00316501" width="52.4373" height="50.9754" transform="matrix(0.695478 -0.718548 0.697651 0.716438 59.1386 971.331)" stroke="url(#paint69_linear_16_40)" stroke-width="3"/>
<rect x="2.10353" y="-0.00318691" width="52.7867" height="51.3177" transform="matrix(0.700098 -0.714047 0.702258 0.711923 141.432 1040.34)" stroke="url(#paint70_linear_16_40)" stroke-width="3"/>
<rect x="2.10353" y="-0.003187" width="52.7867" height="51.3177" transform="matrix(0.700097 -0.714047 0.702258 0.711923 140.633 1059.83)" stroke="url(#paint71_linear_16_40)" stroke-width="3"/>
</g>
<defs>
<linearGradient id="paint0_linear_16_40" x1="27.8933" y1="0" x2="27.8933" y2="54.3177" gradientUnits="userSpaceOnUse">
<stop stop-color="#BF55FA"/>
<stop offset="1" stop-color="#3CBCC2"/>
</linearGradient>
<linearGradient id="paint1_linear_16_40" x1="27.8933" y1="0" x2="27.8933" y2="54.3177" gradientUnits="userSpaceOnUse">
<stop stop-color="#BF55FA"/>
<stop offset="1" stop-color="#3CBCC2"/>
</linearGradient>
<linearGradient id="paint2_linear_16_40" x1="27.8933" y1="0" x2="27.8933" y2="54.3177" gradientUnits="userSpaceOnUse">
<stop stop-color="#BF55FA"/>
<stop offset="1" stop-color="#3CBCC2"/>
</linearGradient>
<linearGradient id="paint3_linear_16_40" x1="27.8933" y1="0" x2="27.8933" y2="54.3177" gradientUnits="userSpaceOnUse">
<stop stop-color="#BF55FA"/>
<stop offset="1" stop-color="#3CBCC2"/>
</linearGradient>
<linearGradient id="paint4_linear_16_40" x1="27.8933" y1="0" x2="27.8933" y2="54.3177" gradientUnits="userSpaceOnUse">
<stop stop-color="#BF55FA"/>
<stop offset="1" stop-color="#3CBCC2"/>
</linearGradient>
<linearGradient id="paint5_linear_16_40" x1="27.8933" y1="0" x2="27.8933" y2="54.3177" gradientUnits="userSpaceOnUse">
<stop stop-color="#BF55FA"/>
<stop offset="1" stop-color="#3CBCC2"/>
</linearGradient>
<linearGradient id="paint6_linear_16_40" x1="28.0388" y1="0" x2="28.0388" y2="54.5993" gradientUnits="userSpaceOnUse">
<stop stop-color="#BF55FA"/>
<stop offset="1" stop-color="#3CBCC2"/>
</linearGradient>
<linearGradient id="paint7_linear_16_40" x1="28.0388" y1="0" x2="28.0388" y2="54.5993" gradientUnits="userSpaceOnUse">
<stop stop-color="#BF55FA"/>
<stop offset="1" stop-color="#3CBCC2"/>
</linearGradient>
<linearGradient id="paint8_linear_16_40" x1="28.0388" y1="0" x2="28.0388" y2="54.5993" gradientUnits="userSpaceOnUse">
<stop stop-color="#BF55FA"/>
<stop offset="1" stop-color="#3CBCC2"/>
</linearGradient>
<linearGradient id="paint9_linear_16_40" x1="28.0388" y1="0" x2="28.0388" y2="54.5993" gradientUnits="userSpaceOnUse">
<stop stop-color="#BF55FA"/>
<stop offset="1" stop-color="#3CBCC2"/>
</linearGradient>
<linearGradient id="paint10_linear_16_40" x1="27.7186" y1="0" x2="27.7186" y2="53.9754" gradientUnits="userSpaceOnUse">
<stop stop-color="#BF55FA"/>
<stop offset="1" stop-color="#3CBCC2"/>
</linearGradient>
<linearGradient id="paint11_linear_16_40" x1="27.7186" y1="0" x2="27.7186" y2="53.9754" gradientUnits="userSpaceOnUse">
<stop stop-color="#BF55FA"/>
<stop offset="1" stop-color="#3CBCC2"/>
</linearGradient>
<linearGradient id="paint12_linear_16_40" x1="28.2138" y1="0" x2="28.2138" y2="54.9421" gradientUnits="userSpaceOnUse">
<stop stop-color="#BF55FA"/>
<stop offset="1" stop-color="#3CBCC2"/>
</linearGradient>
<linearGradient id="paint13_linear_16_40" x1="28.2138" y1="0" x2="28.2138" y2="54.9421" gradientUnits="userSpaceOnUse">
<stop stop-color="#BF55FA"/>
<stop offset="1" stop-color="#3CBCC2"/>
</linearGradient>
<linearGradient id="paint14_linear_16_40" x1="28.0388" y1="0" x2="28.0388" y2="54.5993" gradientUnits="userSpaceOnUse">
<stop stop-color="#BF55FA"/>
<stop offset="1" stop-color="#3CBCC2"/>
</linearGradient>
<linearGradient id="paint15_linear_16_40" x1="28.0388" y1="0" x2="28.0388" y2="54.5993" gradientUnits="userSpaceOnUse">
<stop stop-color="#BF55FA"/>
<stop offset="1" stop-color="#3CBCC2"/>
</linearGradient>
<linearGradient id="paint16_linear_16_40" x1="27.8933" y1="0" x2="27.8933" y2="54.3177" gradientUnits="userSpaceOnUse">
<stop stop-color="#BF55FA"/>
<stop offset="1" stop-color="#3CBCC2"/>
</linearGradient>
<linearGradient id="paint17_linear_16_40" x1="27.8933" y1="0" x2="27.8933" y2="54.3177" gradientUnits="userSpaceOnUse">
<stop stop-color="#BF55FA"/>
<stop offset="1" stop-color="#3CBCC2"/>
</linearGradient>
<linearGradient id="paint18_linear_16_40" x1="27.865" y1="0" x2="27.865" y2="54.2588" gradientUnits="userSpaceOnUse">
<stop stop-color="#BF55FA"/>
<stop offset="1" stop-color="#3CBCC2"/>
</linearGradient>
<linearGradient id="paint19_linear_16_40" x1="27.865" y1="0" x2="27.865" y2="54.2588" gradientUnits="userSpaceOnUse">
<stop stop-color="#BF55FA"/>
<stop offset="1" stop-color="#3CBCC2"/>
</linearGradient>
<linearGradient id="paint20_linear_16_40" x1="27.865" y1="0" x2="27.865" y2="54.2588" gradientUnits="userSpaceOnUse">
<stop stop-color="#BF55FA"/>
<stop offset="1" stop-color="#3CBCC2"/>
</linearGradient>
<linearGradient id="paint21_linear_16_40" x1="27.865" y1="0" x2="27.865" y2="54.2588" gradientUnits="userSpaceOnUse">
<stop stop-color="#BF55FA"/>
<stop offset="1" stop-color="#3CBCC2"/>
</linearGradient>
<linearGradient id="paint22_linear_16_40" x1="28.0388" y1="0" x2="28.0388" y2="54.5993" gradientUnits="userSpaceOnUse">
<stop stop-color="#BF55FA"/>
<stop offset="1" stop-color="#3CBCC2"/>
</linearGradient>
<linearGradient id="paint23_linear_16_40" x1="28.0388" y1="0" x2="28.0388" y2="54.5993" gradientUnits="userSpaceOnUse">
<stop stop-color="#BF55FA"/>
<stop offset="1" stop-color="#3CBCC2"/>
</linearGradient>
<linearGradient id="paint24_linear_16_40" x1="27.7186" y1="0" x2="27.7186" y2="53.9754" gradientUnits="userSpaceOnUse">
<stop stop-color="#BF55FA"/>
<stop offset="1" stop-color="#3CBCC2"/>
</linearGradient>
<linearGradient id="paint25_linear_16_40" x1="27.7186" y1="0" x2="27.7186" y2="53.9754" gradientUnits="userSpaceOnUse">
<stop stop-color="#BF55FA"/>
<stop offset="1" stop-color="#3CBCC2"/>
</linearGradient>
<linearGradient id="paint26_linear_16_40" x1="27.8933" y1="0" x2="27.8933" y2="54.3177" gradientUnits="userSpaceOnUse">
<stop stop-color="#BF55FA"/>
<stop offset="1" stop-color="#3CBCC2"/>
</linearGradient>
<linearGradient id="paint27_linear_16_40" x1="27.8933" y1="0" x2="27.8933" y2="54.3177" gradientUnits="userSpaceOnUse">
<stop stop-color="#BF55FA"/>
<stop offset="1" stop-color="#3CBCC2"/>
</linearGradient>
<linearGradient id="paint28_linear_16_40" x1="27.7186" y1="0" x2="27.7186" y2="53.9754" gradientUnits="userSpaceOnUse">
<stop stop-color="#BF55FA"/>
<stop offset="1" stop-color="#3CBCC2"/>
</linearGradient>
<linearGradient id="paint29_linear_16_40" x1="27.7186" y1="0" x2="27.7186" y2="53.9754" gradientUnits="userSpaceOnUse">
<stop stop-color="#BF55FA"/>
<stop offset="1" stop-color="#3CBCC2"/>
</linearGradient>
<linearGradient id="paint30_linear_16_40" x1="27.8933" y1="0" x2="27.8933" y2="54.3177" gradientUnits="userSpaceOnUse">
<stop stop-color="#BF55FA"/>
<stop offset="1" stop-color="#3CBCC2"/>
</linearGradient>
<linearGradient id="paint31_linear_16_40" x1="27.8933" y1="0" x2="27.8933" y2="54.3177" gradientUnits="userSpaceOnUse">
<stop stop-color="#BF55FA"/>
<stop offset="1" stop-color="#3CBCC2"/>
</linearGradient>
<linearGradient id="paint32_linear_16_40" x1="27.7186" y1="0" x2="27.7186" y2="53.9754" gradientUnits="userSpaceOnUse">
<stop stop-color="#BF55FA"/>
<stop offset="1" stop-color="#3CBCC2"/>
</linearGradient>
<linearGradient id="paint33_linear_16_40" x1="27.7186" y1="0" x2="27.7186" y2="53.9754" gradientUnits="userSpaceOnUse">
<stop stop-color="#BF55FA"/>
<stop offset="1" stop-color="#3CBCC2"/>
</linearGradient>
<linearGradient id="paint34_linear_16_40" x1="27.8933" y1="0" x2="27.8933" y2="54.3177" gradientUnits="userSpaceOnUse">
<stop stop-color="#BF55FA"/>
<stop offset="1" stop-color="#3CBCC2"/>
</linearGradient>
<linearGradient id="paint35_linear_16_40" x1="27.8933" y1="0" x2="27.8933" y2="54.3177" gradientUnits="userSpaceOnUse">
<stop stop-color="#BF55FA"/>
<stop offset="1" stop-color="#3CBCC2"/>
</linearGradient>
<linearGradient id="paint36_linear_16_40" x1="27.8933" y1="0" x2="27.8933" y2="54.3177" gradientUnits="userSpaceOnUse">
<stop stop-color="#BF55FA"/>
<stop offset="1" stop-color="#3CBCC2"/>
</linearGradient>
<linearGradient id="paint37_linear_16_40" x1="27.8933" y1="0" x2="27.8933" y2="54.3177" gradientUnits="userSpaceOnUse">
<stop stop-color="#BF55FA"/>
<stop offset="1" stop-color="#3CBCC2"/>
</linearGradient>
<linearGradient id="paint38_linear_16_40" x1="27.8933" y1="0" x2="27.8933" y2="54.3177" gradientUnits="userSpaceOnUse">
<stop stop-color="#BF55FA"/>
<stop offset="1" stop-color="#3CBCC2"/>
</linearGradient>
<linearGradient id="paint39_linear_16_40" x1="27.8933" y1="0" x2="27.8933" y2="54.3177" gradientUnits="userSpaceOnUse">
<stop stop-color="#BF55FA"/>
<stop offset="1" stop-color="#3CBCC2"/>
</linearGradient>
<linearGradient id="paint40_linear_16_40" x1="27.8933" y1="0" x2="27.8933" y2="54.3177" gradientUnits="userSpaceOnUse">
<stop stop-color="#BF55FA"/>
<stop offset="1" stop-color="#3CBCC2"/>
</linearGradient>
<linearGradient id="paint41_linear_16_40" x1="27.8933" y1="0" x2="27.8933" y2="54.3177" gradientUnits="userSpaceOnUse">
<stop stop-color="#BF55FA"/>
<stop offset="1" stop-color="#3CBCC2"/>
</linearGradient>
<linearGradient id="paint42_linear_16_40" x1="28.0388" y1="0" x2="28.0388" y2="54.5993" gradientUnits="userSpaceOnUse">
<stop stop-color="#BF55FA"/>
<stop offset="1" stop-color="#3CBCC2"/>
</linearGradient>
<linearGradient id="paint43_linear_16_40" x1="28.0388" y1="0" x2="28.0388" y2="54.5993" gradientUnits="userSpaceOnUse">
<stop stop-color="#BF55FA"/>
<stop offset="1" stop-color="#3CBCC2"/>
</linearGradient>
<linearGradient id="paint44_linear_16_40" x1="28.0388" y1="0" x2="28.0388" y2="54.5993" gradientUnits="userSpaceOnUse">
<stop stop-color="#BF55FA"/>
<stop offset="1" stop-color="#3CBCC2"/>
</linearGradient>
<linearGradient id="paint45_linear_16_40" x1="28.0388" y1="0" x2="28.0388" y2="54.5993" gradientUnits="userSpaceOnUse">
<stop stop-color="#BF55FA"/>
<stop offset="1" stop-color="#3CBCC2"/>
</linearGradient>
<linearGradient id="paint46_linear_16_40" x1="27.7186" y1="0" x2="27.7186" y2="53.9754" gradientUnits="userSpaceOnUse">
<stop stop-color="#BF55FA"/>
<stop offset="1" stop-color="#3CBCC2"/>
</linearGradient>
<linearGradient id="paint47_linear_16_40" x1="27.7186" y1="0" x2="27.7186" y2="53.9754" gradientUnits="userSpaceOnUse">
<stop stop-color="#BF55FA"/>
<stop offset="1" stop-color="#3CBCC2"/>
</linearGradient>
<linearGradient id="paint48_linear_16_40" x1="28.2138" y1="0" x2="28.2138" y2="54.9421" gradientUnits="userSpaceOnUse">
<stop stop-color="#BF55FA"/>
<stop offset="1" stop-color="#3CBCC2"/>
</linearGradient>
<linearGradient id="paint49_linear_16_40" x1="28.2138" y1="0" x2="28.2138" y2="54.9421" gradientUnits="userSpaceOnUse">
<stop stop-color="#BF55FA"/>
<stop offset="1" stop-color="#3CBCC2"/>
</linearGradient>
<linearGradient id="paint50_linear_16_40" x1="28.0388" y1="0" x2="28.0388" y2="54.5993" gradientUnits="userSpaceOnUse">
<stop stop-color="#BF55FA"/>
<stop offset="1" stop-color="#3CBCC2"/>
</linearGradient>
<linearGradient id="paint51_linear_16_40" x1="28.0388" y1="0" x2="28.0388" y2="54.5993" gradientUnits="userSpaceOnUse">
<stop stop-color="#BF55FA"/>
<stop offset="1" stop-color="#3CBCC2"/>
</linearGradient>
<linearGradient id="paint52_linear_16_40" x1="27.8933" y1="0" x2="27.8933" y2="54.3177" gradientUnits="userSpaceOnUse">
<stop stop-color="#BF55FA"/>
<stop offset="1" stop-color="#3CBCC2"/>
</linearGradient>
<linearGradient id="paint53_linear_16_40" x1="27.8933" y1="0" x2="27.8933" y2="54.3177" gradientUnits="userSpaceOnUse">
<stop stop-color="#BF55FA"/>
<stop offset="1" stop-color="#3CBCC2"/>
</linearGradient>
<linearGradient id="paint54_linear_16_40" x1="27.865" y1="0" x2="27.865" y2="54.2588" gradientUnits="userSpaceOnUse">
<stop stop-color="#BF55FA"/>
<stop offset="1" stop-color="#3CBCC2"/>
</linearGradient>
<linearGradient id="paint55_linear_16_40" x1="27.865" y1="0" x2="27.865" y2="54.2588" gradientUnits="userSpaceOnUse">
<stop stop-color="#BF55FA"/>
<stop offset="1" stop-color="#3CBCC2"/>
</linearGradient>
<linearGradient id="paint56_linear_16_40" x1="27.865" y1="0" x2="27.865" y2="54.2588" gradientUnits="userSpaceOnUse">
<stop stop-color="#BF55FA"/>
<stop offset="1" stop-color="#3CBCC2"/>
</linearGradient>
<linearGradient id="paint57_linear_16_40" x1="27.865" y1="0" x2="27.865" y2="54.2588" gradientUnits="userSpaceOnUse">
<stop stop-color="#BF55FA"/>
<stop offset="1" stop-color="#3CBCC2"/>
</linearGradient>
<linearGradient id="paint58_linear_16_40" x1="28.0388" y1="0" x2="28.0388" y2="54.5993" gradientUnits="userSpaceOnUse">
<stop stop-color="#BF55FA"/>
<stop offset="1" stop-color="#3CBCC2"/>
</linearGradient>
<linearGradient id="paint59_linear_16_40" x1="28.0388" y1="0" x2="28.0388" y2="54.5993" gradientUnits="userSpaceOnUse">
<stop stop-color="#BF55FA"/>
<stop offset="1" stop-color="#3CBCC2"/>
</linearGradient>
<linearGradient id="paint60_linear_16_40" x1="27.7186" y1="0" x2="27.7186" y2="53.9754" gradientUnits="userSpaceOnUse">
<stop stop-color="#BF55FA"/>
<stop offset="1" stop-color="#3CBCC2"/>
</linearGradient>
<linearGradient id="paint61_linear_16_40" x1="27.7186" y1="0" x2="27.7186" y2="53.9754" gradientUnits="userSpaceOnUse">
<stop stop-color="#BF55FA"/>
<stop offset="1" stop-color="#3CBCC2"/>
</linearGradient>
<linearGradient id="paint62_linear_16_40" x1="27.8933" y1="0" x2="27.8933" y2="54.3177" gradientUnits="userSpaceOnUse">
<stop stop-color="#BF55FA"/>
<stop offset="1" stop-color="#3CBCC2"/>
</linearGradient>
<linearGradient id="paint63_linear_16_40" x1="27.8933" y1="0" x2="27.8933" y2="54.3177" gradientUnits="userSpaceOnUse">
<stop stop-color="#BF55FA"/>
<stop offset="1" stop-color="#3CBCC2"/>
</linearGradient>
<linearGradient id="paint64_linear_16_40" x1="27.7186" y1="0" x2="27.7186" y2="53.9754" gradientUnits="userSpaceOnUse">
<stop stop-color="#BF55FA"/>
<stop offset="1" stop-color="#3CBCC2"/>
</linearGradient>
<linearGradient id="paint65_linear_16_40" x1="27.7186" y1="0" x2="27.7186" y2="53.9754" gradientUnits="userSpaceOnUse">
<stop stop-color="#BF55FA"/>
<stop offset="1" stop-color="#3CBCC2"/>
</linearGradient>
<linearGradient id="paint66_linear_16_40" x1="27.8933" y1="0" x2="27.8933" y2="54.3177" gradientUnits="userSpaceOnUse">
<stop stop-color="#BF55FA"/>
<stop offset="1" stop-color="#3CBCC2"/>
</linearGradient>
<linearGradient id="paint67_linear_16_40" x1="27.8933" y1="0" x2="27.8933" y2="54.3177" gradientUnits="userSpaceOnUse">
<stop stop-color="#BF55FA"/>
<stop offset="1" stop-color="#3CBCC2"/>
</linearGradient>
<linearGradient id="paint68_linear_16_40" x1="27.7186" y1="0" x2="27.7186" y2="53.9754" gradientUnits="userSpaceOnUse">
<stop stop-color="#BF55FA"/>
<stop offset="1" stop-color="#3CBCC2"/>
</linearGradient>
<linearGradient id="paint69_linear_16_40" x1="27.7186" y1="0" x2="27.7186" y2="53.9754" gradientUnits="userSpaceOnUse">
<stop stop-color="#BF55FA"/>
<stop offset="1" stop-color="#3CBCC2"/>
</linearGradient>
<linearGradient id="paint70_linear_16_40" x1="27.8933" y1="0" x2="27.8933" y2="54.3177" gradientUnits="userSpaceOnUse">
<stop stop-color="#BF55FA"/>
<stop offset="1" stop-color="#3CBCC2"/>
</linearGradient>
<linearGradient id="paint71_linear_16_40" x1="27.8933" y1="0" x2="27.8933" y2="54.3177" gradientUnits="userSpaceOnUse">
<stop stop-color="#BF55FA"/>
<stop offset="1" stop-color="#3CBCC2"/>
</linearGradient>
<clipPath id="clip0_16_40">
<rect width="1080" height="1080" fill="white"/>
</clipPath>
</defs>
</svg>
