<svg width="1584" height="396" viewBox="0 0 1584 396" fill="none" xmlns="http://www.w3.org/2000/svg">
<rect width="1584" height="396" fill="#121214"/>
<rect x="119.121" y="81.0345" width="66.2449" height="64.425" transform="rotate(-45.0868 119.121 81.0345)" stroke="url(#paint0_linear_10_4)" stroke-width="3"/>
<rect x="118.121" y="105.035" width="66.2449" height="64.425" transform="rotate(-45.0868 118.121 105.035)" stroke="url(#paint1_linear_10_4)" stroke-width="3"/>
<rect x="119.121" y="287.035" width="66.2449" height="64.425" transform="rotate(-45.0868 119.121 287.035)" stroke="url(#paint2_linear_10_4)" stroke-width="3"/>
<rect x="118.121" y="311.035" width="66.2449" height="64.425" transform="rotate(-45.0868 118.121 311.035)" stroke="url(#paint3_linear_10_4)" stroke-width="3"/>
<rect x="233.121" y="190.035" width="66.2449" height="64.425" transform="rotate(-45.0868 233.121 190.035)" stroke="url(#paint4_linear_10_4)" stroke-width="3"/>
<rect x="232.121" y="214.035" width="66.2449" height="64.425" transform="rotate(-45.0868 232.121 214.035)" stroke="url(#paint5_linear_10_4)" stroke-width="3"/>
<rect x="347.121" y="81.0345" width="66.2449" height="64.425" transform="rotate(-45.0868 347.121 81.0345)" stroke="url(#paint6_linear_10_4)" stroke-width="3"/>
<rect x="346.121" y="105.035" width="66.2449" height="64.425" transform="rotate(-45.0868 346.121 105.035)" stroke="url(#paint7_linear_10_4)" stroke-width="3"/>
<rect x="347.121" y="287.035" width="66.2449" height="64.425" transform="rotate(-45.0868 347.121 287.035)" stroke="url(#paint8_linear_10_4)" stroke-width="3"/>
<rect x="346.121" y="311.035" width="66.2449" height="64.425" transform="rotate(-45.0868 346.121 311.035)" stroke="url(#paint9_linear_10_4)" stroke-width="3"/>
<rect x="461.121" y="190.035" width="66.2449" height="64.425" transform="rotate(-45.0868 461.121 190.035)" stroke="url(#paint10_linear_10_4)" stroke-width="3"/>
<rect x="460.121" y="214.035" width="66.2449" height="64.425" transform="rotate(-45.0868 460.121 214.035)" stroke="url(#paint11_linear_10_4)" stroke-width="3"/>
<rect x="575.121" y="87.0345" width="66.2449" height="64.425" transform="rotate(-45.0868 575.121 87.0345)" stroke="url(#paint12_linear_10_4)" stroke-width="3"/>
<rect x="574.121" y="111.035" width="66.2449" height="64.425" transform="rotate(-45.0868 574.121 111.035)" stroke="url(#paint13_linear_10_4)" stroke-width="3"/>
<rect x="575.121" y="293.035" width="66.2449" height="64.425" transform="rotate(-45.0868 575.121 293.035)" stroke="url(#paint14_linear_10_4)" stroke-width="3"/>
<rect x="574.121" y="317.035" width="66.2449" height="64.425" transform="rotate(-45.0868 574.121 317.035)" stroke="url(#paint15_linear_10_4)" stroke-width="3"/>
<rect x="689.121" y="196.035" width="66.2449" height="64.425" transform="rotate(-45.0868 689.121 196.035)" stroke="url(#paint16_linear_10_4)" stroke-width="3"/>
<rect x="688.121" y="220.035" width="66.2449" height="64.425" transform="rotate(-45.0868 688.121 220.035)" stroke="url(#paint17_linear_10_4)" stroke-width="3"/>
<rect x="803.121" y="87.0345" width="66.2449" height="64.425" transform="rotate(-45.0868 803.121 87.0345)" stroke="url(#paint18_linear_10_4)" stroke-width="3"/>
<rect x="802.121" y="111.035" width="66.2449" height="64.425" transform="rotate(-45.0868 802.121 111.035)" stroke="url(#paint19_linear_10_4)" stroke-width="3"/>
<rect x="803.121" y="293.035" width="66.2449" height="64.425" transform="rotate(-45.0868 803.121 293.035)" stroke="url(#paint20_linear_10_4)" stroke-width="3"/>
<rect x="802.121" y="317.035" width="66.2449" height="64.425" transform="rotate(-45.0868 802.121 317.035)" stroke="url(#paint21_linear_10_4)" stroke-width="3"/>
<rect x="917.121" y="196.035" width="66.2449" height="64.425" transform="rotate(-45.0868 917.121 196.035)" stroke="url(#paint22_linear_10_4)" stroke-width="3"/>
<rect x="916.121" y="220.035" width="66.2449" height="64.425" transform="rotate(-45.0868 916.121 220.035)" stroke="url(#paint23_linear_10_4)" stroke-width="3"/>
<rect x="1031.12" y="81.0345" width="66.2449" height="64.425" transform="rotate(-45.0868 1031.12 81.0345)" stroke="url(#paint24_linear_10_4)" stroke-width="3"/>
<rect x="1030.12" y="105.035" width="66.2449" height="64.425" transform="rotate(-45.0868 1030.12 105.035)" stroke="url(#paint25_linear_10_4)" stroke-width="3"/>
<rect x="1031.12" y="287.035" width="66.2449" height="64.425" transform="rotate(-45.0868 1031.12 287.035)" stroke="url(#paint26_linear_10_4)" stroke-width="3"/>
<rect x="1030.12" y="311.035" width="66.2449" height="64.425" transform="rotate(-45.0868 1030.12 311.035)" stroke="url(#paint27_linear_10_4)" stroke-width="3"/>
<rect x="1145.12" y="190.035" width="66.2449" height="64.425" transform="rotate(-45.0868 1145.12 190.035)" stroke="url(#paint28_linear_10_4)" stroke-width="3"/>
<rect x="1144.12" y="214.035" width="66.2449" height="64.425" transform="rotate(-45.0868 1144.12 214.035)" stroke="url(#paint29_linear_10_4)" stroke-width="3"/>
<rect x="1259.12" y="87.0345" width="66.2449" height="64.425" transform="rotate(-45.0868 1259.12 87.0345)" stroke="url(#paint30_linear_10_4)" stroke-width="3"/>
<rect x="1258.12" y="111.035" width="66.2449" height="64.425" transform="rotate(-45.0868 1258.12 111.035)" stroke="url(#paint31_linear_10_4)" stroke-width="3"/>
<rect x="1259.12" y="293.035" width="66.2449" height="64.425" transform="rotate(-45.0868 1259.12 293.035)" stroke="url(#paint32_linear_10_4)" stroke-width="3"/>
<rect x="1258.12" y="317.035" width="66.2449" height="64.425" transform="rotate(-45.0868 1258.12 317.035)" stroke="url(#paint33_linear_10_4)" stroke-width="3"/>
<rect x="1373.12" y="196.035" width="66.2449" height="64.425" transform="rotate(-45.0868 1373.12 196.035)" stroke="url(#paint34_linear_10_4)" stroke-width="3"/>
<rect x="1372.12" y="220.035" width="66.2449" height="64.425" transform="rotate(-45.0868 1372.12 220.035)" stroke="url(#paint35_linear_10_4)" stroke-width="3"/>
<defs>
<linearGradient id="paint0_linear_10_4" x1="151.622" y1="81.0377" x2="151.622" y2="148.463" gradientUnits="userSpaceOnUse">
<stop stop-color="#BF55FA"/>
<stop offset="1" stop-color="#3CBCC2"/>
</linearGradient>
<linearGradient id="paint1_linear_10_4" x1="150.622" y1="105.038" x2="150.622" y2="172.463" gradientUnits="userSpaceOnUse">
<stop stop-color="#BF55FA"/>
<stop offset="1" stop-color="#3CBCC2"/>
</linearGradient>
<linearGradient id="paint2_linear_10_4" x1="151.622" y1="287.038" x2="151.622" y2="354.463" gradientUnits="userSpaceOnUse">
<stop stop-color="#BF55FA"/>
<stop offset="1" stop-color="#3CBCC2"/>
</linearGradient>
<linearGradient id="paint3_linear_10_4" x1="150.622" y1="311.038" x2="150.622" y2="378.463" gradientUnits="userSpaceOnUse">
<stop stop-color="#BF55FA"/>
<stop offset="1" stop-color="#3CBCC2"/>
</linearGradient>
<linearGradient id="paint4_linear_10_4" x1="265.622" y1="190.038" x2="265.622" y2="257.463" gradientUnits="userSpaceOnUse">
<stop stop-color="#BF55FA"/>
<stop offset="1" stop-color="#3CBCC2"/>
</linearGradient>
<linearGradient id="paint5_linear_10_4" x1="264.622" y1="214.038" x2="264.622" y2="281.463" gradientUnits="userSpaceOnUse">
<stop stop-color="#BF55FA"/>
<stop offset="1" stop-color="#3CBCC2"/>
</linearGradient>
<linearGradient id="paint6_linear_10_4" x1="379.622" y1="81.0377" x2="379.622" y2="148.463" gradientUnits="userSpaceOnUse">
<stop stop-color="#BF55FA"/>
<stop offset="1" stop-color="#3CBCC2"/>
</linearGradient>
<linearGradient id="paint7_linear_10_4" x1="378.622" y1="105.038" x2="378.622" y2="172.463" gradientUnits="userSpaceOnUse">
<stop stop-color="#BF55FA"/>
<stop offset="1" stop-color="#3CBCC2"/>
</linearGradient>
<linearGradient id="paint8_linear_10_4" x1="379.622" y1="287.038" x2="379.622" y2="354.463" gradientUnits="userSpaceOnUse">
<stop stop-color="#BF55FA"/>
<stop offset="1" stop-color="#3CBCC2"/>
</linearGradient>
<linearGradient id="paint9_linear_10_4" x1="378.622" y1="311.038" x2="378.622" y2="378.463" gradientUnits="userSpaceOnUse">
<stop stop-color="#BF55FA"/>
<stop offset="1" stop-color="#3CBCC2"/>
</linearGradient>
<linearGradient id="paint10_linear_10_4" x1="493.622" y1="190.038" x2="493.622" y2="257.463" gradientUnits="userSpaceOnUse">
<stop stop-color="#BF55FA"/>
<stop offset="1" stop-color="#3CBCC2"/>
</linearGradient>
<linearGradient id="paint11_linear_10_4" x1="492.622" y1="214.038" x2="492.622" y2="281.463" gradientUnits="userSpaceOnUse">
<stop stop-color="#BF55FA"/>
<stop offset="1" stop-color="#3CBCC2"/>
</linearGradient>
<linearGradient id="paint12_linear_10_4" x1="607.622" y1="87.0377" x2="607.622" y2="154.463" gradientUnits="userSpaceOnUse">
<stop stop-color="#BF55FA"/>
<stop offset="1" stop-color="#3CBCC2"/>
</linearGradient>
<linearGradient id="paint13_linear_10_4" x1="606.622" y1="111.038" x2="606.622" y2="178.463" gradientUnits="userSpaceOnUse">
<stop stop-color="#BF55FA"/>
<stop offset="1" stop-color="#3CBCC2"/>
</linearGradient>
<linearGradient id="paint14_linear_10_4" x1="607.622" y1="293.038" x2="607.622" y2="360.463" gradientUnits="userSpaceOnUse">
<stop stop-color="#BF55FA"/>
<stop offset="1" stop-color="#3CBCC2"/>
</linearGradient>
<linearGradient id="paint15_linear_10_4" x1="606.622" y1="317.038" x2="606.622" y2="384.463" gradientUnits="userSpaceOnUse">
<stop stop-color="#BF55FA"/>
<stop offset="1" stop-color="#3CBCC2"/>
</linearGradient>
<linearGradient id="paint16_linear_10_4" x1="721.622" y1="196.038" x2="721.622" y2="263.463" gradientUnits="userSpaceOnUse">
<stop stop-color="#BF55FA"/>
<stop offset="1" stop-color="#3CBCC2"/>
</linearGradient>
<linearGradient id="paint17_linear_10_4" x1="720.622" y1="220.038" x2="720.622" y2="287.463" gradientUnits="userSpaceOnUse">
<stop stop-color="#BF55FA"/>
<stop offset="1" stop-color="#3CBCC2"/>
</linearGradient>
<linearGradient id="paint18_linear_10_4" x1="835.622" y1="87.0377" x2="835.622" y2="154.463" gradientUnits="userSpaceOnUse">
<stop stop-color="#BF55FA"/>
<stop offset="1" stop-color="#3CBCC2"/>
</linearGradient>
<linearGradient id="paint19_linear_10_4" x1="834.622" y1="111.038" x2="834.622" y2="178.463" gradientUnits="userSpaceOnUse">
<stop stop-color="#BF55FA"/>
<stop offset="1" stop-color="#3CBCC2"/>
</linearGradient>
<linearGradient id="paint20_linear_10_4" x1="835.622" y1="293.038" x2="835.622" y2="360.463" gradientUnits="userSpaceOnUse">
<stop stop-color="#BF55FA"/>
<stop offset="1" stop-color="#3CBCC2"/>
</linearGradient>
<linearGradient id="paint21_linear_10_4" x1="834.622" y1="317.038" x2="834.622" y2="384.463" gradientUnits="userSpaceOnUse">
<stop stop-color="#BF55FA"/>
<stop offset="1" stop-color="#3CBCC2"/>
</linearGradient>
<linearGradient id="paint22_linear_10_4" x1="949.622" y1="196.038" x2="949.622" y2="263.463" gradientUnits="userSpaceOnUse">
<stop stop-color="#BF55FA"/>
<stop offset="1" stop-color="#3CBCC2"/>
</linearGradient>
<linearGradient id="paint23_linear_10_4" x1="948.622" y1="220.038" x2="948.622" y2="287.463" gradientUnits="userSpaceOnUse">
<stop stop-color="#BF55FA"/>
<stop offset="1" stop-color="#3CBCC2"/>
</linearGradient>
<linearGradient id="paint24_linear_10_4" x1="1063.62" y1="81.0377" x2="1063.62" y2="148.463" gradientUnits="userSpaceOnUse">
<stop stop-color="#BF55FA"/>
<stop offset="1" stop-color="#3CBCC2"/>
</linearGradient>
<linearGradient id="paint25_linear_10_4" x1="1062.62" y1="105.038" x2="1062.62" y2="172.463" gradientUnits="userSpaceOnUse">
<stop stop-color="#BF55FA"/>
<stop offset="1" stop-color="#3CBCC2"/>
</linearGradient>
<linearGradient id="paint26_linear_10_4" x1="1063.62" y1="287.038" x2="1063.62" y2="354.463" gradientUnits="userSpaceOnUse">
<stop stop-color="#BF55FA"/>
<stop offset="1" stop-color="#3CBCC2"/>
</linearGradient>
<linearGradient id="paint27_linear_10_4" x1="1062.62" y1="311.038" x2="1062.62" y2="378.463" gradientUnits="userSpaceOnUse">
<stop stop-color="#BF55FA"/>
<stop offset="1" stop-color="#3CBCC2"/>
</linearGradient>
<linearGradient id="paint28_linear_10_4" x1="1177.62" y1="190.038" x2="1177.62" y2="257.463" gradientUnits="userSpaceOnUse">
<stop stop-color="#BF55FA"/>
<stop offset="1" stop-color="#3CBCC2"/>
</linearGradient>
<linearGradient id="paint29_linear_10_4" x1="1176.62" y1="214.038" x2="1176.62" y2="281.463" gradientUnits="userSpaceOnUse">
<stop stop-color="#BF55FA"/>
<stop offset="1" stop-color="#3CBCC2"/>
</linearGradient>
<linearGradient id="paint30_linear_10_4" x1="1291.62" y1="87.0377" x2="1291.62" y2="154.463" gradientUnits="userSpaceOnUse">
<stop stop-color="#BF55FA"/>
<stop offset="1" stop-color="#3CBCC2"/>
</linearGradient>
<linearGradient id="paint31_linear_10_4" x1="1290.62" y1="111.038" x2="1290.62" y2="178.463" gradientUnits="userSpaceOnUse">
<stop stop-color="#BF55FA"/>
<stop offset="1" stop-color="#3CBCC2"/>
</linearGradient>
<linearGradient id="paint32_linear_10_4" x1="1291.62" y1="293.038" x2="1291.62" y2="360.463" gradientUnits="userSpaceOnUse">
<stop stop-color="#BF55FA"/>
<stop offset="1" stop-color="#3CBCC2"/>
</linearGradient>
<linearGradient id="paint33_linear_10_4" x1="1290.62" y1="317.038" x2="1290.62" y2="384.463" gradientUnits="userSpaceOnUse">
<stop stop-color="#BF55FA"/>
<stop offset="1" stop-color="#3CBCC2"/>
</linearGradient>
<linearGradient id="paint34_linear_10_4" x1="1405.62" y1="196.038" x2="1405.62" y2="263.463" gradientUnits="userSpaceOnUse">
<stop stop-color="#BF55FA"/>
<stop offset="1" stop-color="#3CBCC2"/>
</linearGradient>
<linearGradient id="paint35_linear_10_4" x1="1404.62" y1="220.038" x2="1404.62" y2="287.463" gradientUnits="userSpaceOnUse">
<stop stop-color="#BF55FA"/>
<stop offset="1" stop-color="#3CBCC2"/>
</linearGradient>
</defs>
</svg>
